<svg width="31" height="28" viewBox="0 0 31 28" fill="none" xmlns="http://www.w3.org/2000/svg">
<path fill-rule="evenodd" clip-rule="evenodd" d="M10.6805 4L12.2079 13.1644C12.2882 13.6466 12.7054 14 13.1943 14H17.8057C18.2946 14 18.7118 13.6466 18.7921 13.1644L20.3195 4H10.6805ZM11.2215 13.3288C11.3822 14.2932 12.2166 15 13.1943 15H17.8057C18.7834 15 19.6178 14.2932 19.7785 13.3288L21.5 3H9.5L11.2215 13.3288Z" fill="#EB5757"/>
<path d="M21.5 3C21.5 4.10457 18.8137 5 15.5 5C12.1863 5 9.5 4.10457 9.5 3C9.5 1.89543 12.1863 1 15.5 1C18.8137 1 21.5 1.89543 21.5 3Z" fill="#EB5757"/>
<path fill-rule="evenodd" clip-rule="evenodd" d="M20.4006 3C20.2206 2.86078 19.9031 2.69338 19.4264 2.53447C18.4675 2.21485 17.0793 2 15.5 2C13.9207 2 12.5325 2.21485 11.5736 2.53447C11.0969 2.69338 10.7794 2.86078 10.5994 3C10.7794 3.13922 11.0969 3.30662 11.5736 3.46553C12.5325 3.78515 13.9207 4 15.5 4C17.0793 4 18.4675 3.78515 19.4264 3.46553C19.9031 3.30662 20.2206 3.13922 20.4006 3ZM15.5 5C18.8137 5 21.5 4.10457 21.5 3C21.5 1.89543 18.8137 1 15.5 1C12.1863 1 9.5 1.89543 9.5 3C9.5 4.10457 12.1863 5 15.5 5Z" fill="#EB5757"/>
<path d="M3.125 26H0.880682V18.7273H3.22443C3.92992 18.7273 4.53362 18.8729 5.03551 19.1641C5.53741 19.4529 5.92211 19.8684 6.18963 20.4105C6.45715 20.9503 6.59091 21.5966 6.59091 22.3494C6.59091 23.107 6.45597 23.7592 6.18608 24.3061C5.91619 24.8506 5.5232 25.2696 5.0071 25.5632C4.491 25.8544 3.86364 26 3.125 26ZM1.76136 25.2188H3.06818C3.66951 25.2188 4.16785 25.1027 4.56321 24.8707C4.95857 24.6387 5.25331 24.3085 5.44744 23.88C5.64157 23.4515 5.73864 22.9413 5.73864 22.3494C5.73864 21.7623 5.64276 21.2569 5.45099 20.8331C5.25923 20.407 4.97277 20.0803 4.59162 19.853C4.21046 19.6233 3.7358 19.5085 3.16761 19.5085H1.76136V25.2188ZM10.2415 26.1136C9.71591 26.1136 9.26255 25.9976 8.88139 25.7656C8.5026 25.5312 8.21023 25.2045 8.00426 24.7855C7.80066 24.3641 7.69886 23.8741 7.69886 23.3153C7.69886 22.7566 7.80066 22.2642 8.00426 21.8381C8.21023 21.4096 8.49669 21.0758 8.86364 20.8366C9.23295 20.5952 9.66383 20.4744 10.1562 20.4744C10.4403 20.4744 10.7209 20.5218 10.9979 20.6165C11.2749 20.7112 11.527 20.8651 11.7543 21.0781C11.9815 21.2888 12.1626 21.5682 12.2976 21.9162C12.4325 22.2642 12.5 22.6927 12.5 23.2017V23.5568H8.29545V22.8324H11.6477C11.6477 22.5246 11.5862 22.25 11.4631 22.0085C11.3423 21.767 11.1695 21.5765 10.9446 21.4368C10.7221 21.2971 10.4593 21.2273 10.1562 21.2273C9.82244 21.2273 9.53362 21.3101 9.28977 21.4759C9.0483 21.6392 8.86245 21.8523 8.73224 22.1151C8.60204 22.3778 8.53693 22.6596 8.53693 22.9602V23.4432C8.53693 23.8551 8.60795 24.2043 8.75 24.4908C8.89441 24.7749 9.09446 24.9915 9.35014 25.1406C9.60582 25.2874 9.90294 25.3608 10.2415 25.3608C10.4616 25.3608 10.6605 25.33 10.8381 25.2685C11.018 25.2045 11.1731 25.1098 11.3033 24.9844C11.4335 24.8565 11.5341 24.6979 11.6051 24.5085L12.4148 24.7358C12.3295 25.0104 12.1863 25.2519 11.9851 25.4602C11.7839 25.6662 11.5353 25.8272 11.2393 25.9432C10.9434 26.0568 10.6108 26.1136 10.2415 26.1136ZM14.6129 18.7273V26H13.7749V18.7273H14.6129ZM18.4348 26.1136C17.9093 26.1136 17.4559 25.9976 17.0748 25.7656C16.696 25.5312 16.4036 25.2045 16.1976 24.7855C15.994 24.3641 15.8922 23.8741 15.8922 23.3153C15.8922 22.7566 15.994 22.2642 16.1976 21.8381C16.4036 21.4096 16.69 21.0758 17.057 20.8366C17.4263 20.5952 17.8572 20.4744 18.3496 20.4744C18.6337 20.4744 18.9142 20.5218 19.1912 20.6165C19.4682 20.7112 19.7203 20.8651 19.9476 21.0781C20.1749 21.2888 20.356 21.5682 20.4909 21.9162C20.6259 22.2642 20.6934 22.6927 20.6934 23.2017V23.5568H16.4888V22.8324H19.8411C19.8411 22.5246 19.7795 22.25 19.6564 22.0085C19.5357 21.767 19.3629 21.5765 19.138 21.4368C18.9154 21.2971 18.6526 21.2273 18.3496 21.2273C18.0158 21.2273 17.727 21.3101 17.4831 21.4759C17.2417 21.6392 17.0558 21.8523 16.9256 22.1151C16.7954 22.3778 16.7303 22.6596 16.7303 22.9602V23.4432C16.7303 23.8551 16.8013 24.2043 16.9434 24.4908C17.0878 24.7749 17.2878 24.9915 17.5435 25.1406C17.7992 25.2874 18.0963 25.3608 18.4348 25.3608C18.655 25.3608 18.8539 25.33 19.0314 25.2685C19.2114 25.2045 19.3664 25.1098 19.4966 24.9844C19.6268 24.8565 19.7275 24.6979 19.7985 24.5085L20.6081 24.7358C20.5229 25.0104 20.3797 25.2519 20.1784 25.4602C19.9772 25.6662 19.7286 25.8272 19.4327 25.9432C19.1368 26.0568 18.8042 26.1136 18.4348 26.1136ZM24.3404 20.5455V21.2557H21.5137V20.5455H24.3404ZM22.3375 19.2386H23.1756V24.4375C23.1756 24.6742 23.2099 24.8518 23.2786 24.9702C23.3496 25.0862 23.4396 25.1643 23.5485 25.2045C23.6597 25.2424 23.7769 25.2614 23.9 25.2614C23.9924 25.2614 24.0681 25.2566 24.1273 25.2472C24.1865 25.2353 24.2338 25.2259 24.2694 25.2188L24.4398 25.9716C24.383 25.9929 24.3037 26.0142 24.2019 26.0355C24.1001 26.0592 23.9711 26.071 23.8148 26.071C23.5781 26.071 23.3461 26.0201 23.1188 25.9183C22.8939 25.8165 22.7069 25.6615 22.5577 25.4531C22.4109 25.2448 22.3375 24.982 22.3375 24.6648V19.2386ZM27.8294 26.1136C27.3038 26.1136 26.8504 25.9976 26.4693 25.7656C26.0905 25.5312 25.7981 25.2045 25.5922 24.7855C25.3886 24.3641 25.2868 23.8741 25.2868 23.3153C25.2868 22.7566 25.3886 22.2642 25.5922 21.8381C25.7981 21.4096 26.0846 21.0758 26.4515 20.8366C26.8208 20.5952 27.2517 20.4744 27.7441 20.4744C28.0282 20.4744 28.3088 20.5218 28.5858 20.6165C28.8627 20.7112 29.1149 20.8651 29.3422 21.0781C29.5694 21.2888 29.7505 21.5682 29.8855 21.9162C30.0204 22.2642 30.0879 22.6927 30.0879 23.2017V23.5568H25.8833V22.8324H29.2356C29.2356 22.5246 29.1741 22.25 29.051 22.0085C28.9302 21.767 28.7574 21.5765 28.5325 21.4368C28.31 21.2971 28.0472 21.2273 27.7441 21.2273C27.4103 21.2273 27.1215 21.3101 26.8777 21.4759C26.6362 21.6392 26.4503 21.8523 26.3201 22.1151C26.1899 22.3778 26.1248 22.6596 26.1248 22.9602V23.4432C26.1248 23.8551 26.1958 24.2043 26.3379 24.4908C26.4823 24.7749 26.6824 24.9915 26.938 25.1406C27.1937 25.2874 27.4908 25.3608 27.8294 25.3608C28.0495 25.3608 28.2484 25.33 28.426 25.2685C28.6059 25.2045 28.7609 25.1098 28.8912 24.9844C29.0214 24.8565 29.122 24.6979 29.193 24.5085L30.0027 24.7358C29.9174 25.0104 29.7742 25.2519 29.573 25.4602C29.3717 25.6662 29.1232 25.8272 28.8272 25.9432C28.5313 26.0568 28.1987 26.1136 27.8294 26.1136Z" fill="#EB5757"/>
</svg>
