<svg width="31" height="28" viewBox="0 0 31 28" fill="none" xmlns="http://www.w3.org/2000/svg">
<path fill-rule="evenodd" clip-rule="evenodd" d="M10.6805 4.00006L12.2079 13.1645C12.2882 13.6466 12.7054 14.0001 13.1943 14.0001H17.8057C18.2946 14.0001 18.7118 13.6466 18.7921 13.1645L20.3195 4.00006H10.6805ZM11.2215 13.3289C11.3822 14.2932 12.2166 15.0001 13.1943 15.0001H17.8057C18.7834 15.0001 19.6178 14.2932 19.7785 13.3289L21.5 3.00006H9.5L11.2215 13.3289Z" fill="#BDBDBD"/>
<path d="M21.5 3.00006C21.5 4.10463 18.8137 5.00006 15.5 5.00006C12.1863 5.00006 9.5 4.10463 9.5 3.00006C9.5 1.89549 12.1863 1.00006 15.5 1.00006C18.8137 1.00006 21.5 1.89549 21.5 3.00006Z" fill="#BDBDBD"/>
<path fill-rule="evenodd" clip-rule="evenodd" d="M20.4006 3.00006C20.2206 2.86084 19.9031 2.69344 19.4264 2.53453C18.4675 2.21491 17.0793 2.00006 15.5 2.00006C13.9207 2.00006 12.5325 2.21491 11.5736 2.53453C11.0969 2.69344 10.7794 2.86084 10.5994 3.00006C10.7794 3.13928 11.0969 3.30668 11.5736 3.46559C12.5325 3.78521 13.9207 4.00006 15.5 4.00006C17.0793 4.00006 18.4675 3.78521 19.4264 3.46559C19.9031 3.30668 20.2206 3.13928 20.4006 3.00006ZM15.5 5.00006C18.8137 5.00006 21.5 4.10463 21.5 3.00006C21.5 1.89549 18.8137 1.00006 15.5 1.00006C12.1863 1.00006 9.5 1.89549 9.5 3.00006C9.5 4.10463 12.1863 5.00006 15.5 5.00006Z" fill="#BDBDBD"/>
<path d="M3.125 26.0001H0.880682V18.7273H3.22443C3.92992 18.7273 4.53362 18.8729 5.03551 19.1641C5.53741 19.4529 5.92211 19.8684 6.18963 20.4106C6.45715 20.9503 6.59091 21.5967 6.59091 22.3495C6.59091 23.1071 6.45597 23.7593 6.18608 24.3062C5.91619 24.8507 5.5232 25.2697 5.0071 25.5633C4.491 25.8545 3.86364 26.0001 3.125 26.0001ZM1.76136 25.2188H3.06818C3.66951 25.2188 4.16785 25.1028 4.56321 24.8708C4.95857 24.6388 5.25331 24.3085 5.44744 23.88C5.64157 23.4515 5.73864 22.9413 5.73864 22.3495C5.73864 21.7624 5.64276 21.2569 5.45099 20.8332C5.25923 20.407 4.97277 20.0803 4.59162 19.853C4.21046 19.6234 3.7358 19.5086 3.16761 19.5086H1.76136V25.2188ZM10.2415 26.1137C9.71591 26.1137 9.26255 25.9977 8.88139 25.7657C8.5026 25.5313 8.21023 25.2046 8.00426 24.7856C7.80066 24.3642 7.69886 23.8741 7.69886 23.3154C7.69886 22.7567 7.80066 22.2643 8.00426 21.8381C8.21023 21.4096 8.49669 21.0758 8.86364 20.8367C9.23295 20.5952 9.66383 20.4745 10.1562 20.4745C10.4403 20.4745 10.7209 20.5218 10.9979 20.6165C11.2749 20.7112 11.527 20.8651 11.7543 21.0782C11.9815 21.2889 12.1626 21.5682 12.2976 21.9163C12.4325 22.2643 12.5 22.6928 12.5 23.2018V23.5569H8.29545V22.8324H11.6477C11.6477 22.5247 11.5862 22.2501 11.4631 22.0086C11.3423 21.7671 11.1695 21.5765 10.9446 21.4369C10.7221 21.2972 10.4593 21.2273 10.1562 21.2273C9.82244 21.2273 9.53362 21.3102 9.28977 21.4759C9.0483 21.6393 8.86245 21.8523 8.73224 22.1151C8.60204 22.3779 8.53693 22.6596 8.53693 22.9603V23.4432C8.53693 23.8552 8.60795 24.2044 8.75 24.4908C8.89441 24.7749 9.09446 24.9915 9.35014 25.1407C9.60582 25.2875 9.90294 25.3609 10.2415 25.3609C10.4616 25.3609 10.6605 25.3301 10.8381 25.2685C11.018 25.2046 11.1731 25.1099 11.3033 24.9844C11.4335 24.8566 11.5341 24.698 11.6051 24.5086L12.4148 24.7359C12.3295 25.0105 12.1863 25.252 11.9851 25.4603C11.7839 25.6663 11.5353 25.8272 11.2393 25.9432C10.9434 26.0569 10.6108 26.1137 10.2415 26.1137ZM14.6129 18.7273V26.0001H13.7749V18.7273H14.6129ZM18.4348 26.1137C17.9093 26.1137 17.4559 25.9977 17.0748 25.7657C16.696 25.5313 16.4036 25.2046 16.1976 24.7856C15.994 24.3642 15.8922 23.8741 15.8922 23.3154C15.8922 22.7567 15.994 22.2643 16.1976 21.8381C16.4036 21.4096 16.69 21.0758 17.057 20.8367C17.4263 20.5952 17.8572 20.4745 18.3496 20.4745C18.6337 20.4745 18.9142 20.5218 19.1912 20.6165C19.4682 20.7112 19.7203 20.8651 19.9476 21.0782C20.1749 21.2889 20.356 21.5682 20.4909 21.9163C20.6259 22.2643 20.6934 22.6928 20.6934 23.2018V23.5569H16.4888V22.8324H19.8411C19.8411 22.5247 19.7795 22.2501 19.6564 22.0086C19.5357 21.7671 19.3629 21.5765 19.138 21.4369C18.9154 21.2972 18.6526 21.2273 18.3496 21.2273C18.0158 21.2273 17.727 21.3102 17.4831 21.4759C17.2417 21.6393 17.0558 21.8523 16.9256 22.1151C16.7954 22.3779 16.7303 22.6596 16.7303 22.9603V23.4432C16.7303 23.8552 16.8013 24.2044 16.9434 24.4908C17.0878 24.7749 17.2878 24.9915 17.5435 25.1407C17.7992 25.2875 18.0963 25.3609 18.4348 25.3609C18.655 25.3609 18.8539 25.3301 19.0314 25.2685C19.2114 25.2046 19.3664 25.1099 19.4966 24.9844C19.6268 24.8566 19.7275 24.698 19.7985 24.5086L20.6081 24.7359C20.5229 25.0105 20.3797 25.252 20.1784 25.4603C19.9772 25.6663 19.7286 25.8272 19.4327 25.9432C19.1368 26.0569 18.8042 26.1137 18.4348 26.1137ZM24.3404 20.5455V21.2557H21.5137V20.5455H24.3404ZM22.3375 19.2387H23.1756V24.4376C23.1756 24.6743 23.2099 24.8519 23.2786 24.9702C23.3496 25.0862 23.4396 25.1644 23.5485 25.2046C23.6597 25.2425 23.7769 25.2614 23.9 25.2614C23.9924 25.2614 24.0681 25.2567 24.1273 25.2472C24.1865 25.2354 24.2338 25.2259 24.2694 25.2188L24.4398 25.9717C24.383 25.993 24.3037 26.0143 24.2019 26.0356C24.1001 26.0592 23.9711 26.0711 23.8148 26.0711C23.5781 26.0711 23.3461 26.0202 23.1188 25.9184C22.8939 25.8166 22.7069 25.6615 22.5577 25.4532C22.4109 25.2449 22.3375 24.9821 22.3375 24.6648V19.2387ZM27.8294 26.1137C27.3038 26.1137 26.8504 25.9977 26.4693 25.7657C26.0905 25.5313 25.7981 25.2046 25.5922 24.7856C25.3886 24.3642 25.2868 23.8741 25.2868 23.3154C25.2868 22.7567 25.3886 22.2643 25.5922 21.8381C25.7981 21.4096 26.0846 21.0758 26.4515 20.8367C26.8208 20.5952 27.2517 20.4745 27.7441 20.4745C28.0282 20.4745 28.3088 20.5218 28.5858 20.6165C28.8627 20.7112 29.1149 20.8651 29.3422 21.0782C29.5694 21.2889 29.7505 21.5682 29.8855 21.9163C30.0204 22.2643 30.0879 22.6928 30.0879 23.2018V23.5569H25.8833V22.8324H29.2356C29.2356 22.5247 29.1741 22.2501 29.051 22.0086C28.9302 21.7671 28.7574 21.5765 28.5325 21.4369C28.31 21.2972 28.0472 21.2273 27.7441 21.2273C27.4103 21.2273 27.1215 21.3102 26.8777 21.4759C26.6362 21.6393 26.4503 21.8523 26.3201 22.1151C26.1899 22.3779 26.1248 22.6596 26.1248 22.9603V23.4432C26.1248 23.8552 26.1958 24.2044 26.3379 24.4908C26.4823 24.7749 26.6824 24.9915 26.938 25.1407C27.1937 25.2875 27.4908 25.3609 27.8294 25.3609C28.0495 25.3609 28.2484 25.3301 28.426 25.2685C28.6059 25.2046 28.7609 25.1099 28.8912 24.9844C29.0214 24.8566 29.122 24.698 29.193 24.5086L30.0027 24.7359C29.9174 25.0105 29.7742 25.252 29.573 25.4603C29.3717 25.6663 29.1232 25.8272 28.8272 25.9432C28.5313 26.0569 28.1987 26.1137 27.8294 26.1137Z" fill="#BDBDBD"/>
</svg>
