<svg width="30" height="30" viewBox="0 0 30 30" fill="none" xmlns="http://www.w3.org/2000/svg">
<path d="M15 17.7441C14.7806 17.7441 14.5651 17.6864 14.375 17.5769L3.12499 11.0803C2.52701 10.7349 2.32223 9.97015 2.66763 9.37216C2.77733 9.18224 2.93507 9.0245 3.12499 8.9148L14.375 2.4231C14.762 2.20093 15.2379 2.20093 15.625 2.4231L26.875 8.9148C27.473 9.2602 27.6778 10.025 27.3324 10.623C27.2227 10.8129 27.0649 10.9706 26.875 11.0803L15.625 17.5769C15.4349 17.6864 15.2194 17.7441 15 17.7441Z" fill="#EFEFEF"/>
<path d="M26.875 13.9148L24.4199 12.4981L15.625 17.5769C15.2382 17.7999 14.7618 17.7999 14.375 17.5769L5.58013 12.4981L3.12499 13.9148C2.52701 14.2602 2.32223 15.025 2.66763 15.623C2.77733 15.8129 2.93507 15.9706 3.12499 16.0803L14.375 22.5769C14.7618 22.7999 15.2382 22.7999 15.625 22.5769L26.875 16.0803C27.473 15.7349 27.6778 14.9702 27.3324 14.3722C27.2227 14.1822 27.0649 14.0245 26.875 13.9148Z" fill="#E4E4E4"/>
<path d="M26.875 18.9148L24.4199 17.4981L15.625 22.5769C15.2382 22.7999 14.7618 22.7999 14.375 22.5769L5.58013 17.4981L3.12499 18.9148C2.52701 19.2602 2.32223 20.025 2.66763 20.623C2.77733 20.8129 2.93507 20.9706 3.12499 21.0803L14.375 27.5769C14.7618 27.7999 15.2382 27.7999 15.625 27.5769L26.875 21.0803C27.473 20.7349 27.6778 19.9702 27.3324 19.3722C27.2227 19.1822 27.0649 19.0245 26.875 18.9148Z" fill="#CDCDCD"/>
</svg>
