<svg width="19" height="28" viewBox="0 0 19 28" fill="none" xmlns="http://www.w3.org/2000/svg">
<path d="M17.0016 1.93934C17.1969 2.1346 17.1969 2.45118 17.0016 2.64645L15.9587 3.68933L13.9587 1.68933L15.0016 0.646447C15.1969 0.451184 15.5134 0.451185 15.7087 0.646447L17.0016 1.93934Z" fill="#27AE60"/>
<path d="M15.2516 4.39644L13.2516 2.39644L6.43861 9.20943C6.38372 9.26432 6.34237 9.33123 6.31782 9.40487L5.51326 11.8186C5.44812 12.014 5.63405 12.1999 5.82949 12.1348L8.24317 11.3302C8.31681 11.3057 8.38372 11.2643 8.43861 11.2094L15.2516 4.39644Z" fill="#27AE60"/>
<path fill-rule="evenodd" clip-rule="evenodd" d="M2.5 13.5C2.5 14.3284 3.17157 15 4 15H15C15.8284 15 16.5 14.3284 16.5 13.5V7.5C16.5 7.22386 16.2761 7 16 7C15.7239 7 15.5 7.22386 15.5 7.5V13.5C15.5 13.7761 15.2761 14 15 14H4C3.72386 14 3.5 13.7761 3.5 13.5V2.5C3.5 2.22386 3.72386 2 4 2H10.5C10.7761 2 11 1.77614 11 1.5C11 1.22386 10.7761 1 10.5 1H4C3.17157 1 2.5 1.67157 2.5 2.5V13.5Z" fill="#27AE60"/>
<path d="M0.880682 26V18.7273H5.26989V19.5085H1.76136V21.9659H5.04261V22.7472H1.76136V25.2188H5.3267V26H0.880682ZM8.80327 26.1136C8.34872 26.1136 7.94744 25.9988 7.59943 25.7692C7.25142 25.5372 6.97917 25.2105 6.78267 24.7891C6.58617 24.3653 6.48793 23.8646 6.48793 23.2869C6.48793 22.714 6.58617 22.2169 6.78267 21.7955C6.97917 21.3741 7.2526 21.0485 7.60298 20.8189C7.95336 20.5893 8.35819 20.4744 8.81747 20.4744C9.17259 20.4744 9.45313 20.5336 9.65909 20.652C9.86742 20.768 10.026 20.9006 10.1349 21.0497C10.2462 21.1965 10.3326 21.3172 10.3942 21.4119H10.4652V18.7273H11.3033V26H10.4936V25.1619H10.3942C10.3326 25.2614 10.245 25.3868 10.1314 25.5384C10.0178 25.6875 9.85559 25.8213 9.64489 25.9396C9.43419 26.0556 9.15365 26.1136 8.80327 26.1136ZM8.9169 25.3608C9.25308 25.3608 9.53717 25.2732 9.76918 25.098C10.0012 24.9205 10.1776 24.6754 10.2983 24.3629C10.419 24.0481 10.4794 23.6847 10.4794 23.2727C10.4794 22.8655 10.4202 22.5092 10.3018 22.2038C10.1835 21.8961 10.0083 21.657 9.77628 21.4865C9.54427 21.3137 9.25781 21.2273 8.9169 21.2273C8.56179 21.2273 8.26586 21.3184 8.02912 21.5007C7.79474 21.6806 7.61837 21.9257 7.5 22.2358C7.384 22.5436 7.32599 22.8892 7.32599 23.2727C7.32599 23.661 7.38518 24.0137 7.50355 24.331C7.62429 24.6458 7.80185 24.8968 8.03622 25.0838C8.27296 25.2685 8.56652 25.3608 8.9169 25.3608ZM12.9545 26V20.5455H13.7926V26H12.9545ZM13.3807 19.6364C13.2173 19.6364 13.0765 19.5807 12.9581 19.4695C12.8421 19.3582 12.7841 19.2244 12.7841 19.0682C12.7841 18.9119 12.8421 18.7782 12.9581 18.6669C13.0765 18.5556 13.2173 18.5 13.3807 18.5C13.544 18.5 13.6837 18.5556 13.7997 18.6669C13.9181 18.7782 13.9773 18.9119 13.9773 19.0682C13.9773 19.2244 13.9181 19.3582 13.7997 19.4695C13.6837 19.5807 13.544 19.6364 13.3807 19.6364ZM17.6998 20.5455V21.2557H14.873V20.5455H17.6998ZM15.6969 19.2386H16.535V24.4375C16.535 24.6742 16.5693 24.8518 16.638 24.9702C16.709 25.0862 16.7989 25.1643 16.9078 25.2045C17.0191 25.2424 17.1363 25.2614 17.2594 25.2614C17.3517 25.2614 17.4275 25.2566 17.4867 25.2472C17.5459 25.2353 17.5932 25.2259 17.6287 25.2188L17.7992 25.9716C17.7424 25.9929 17.6631 26.0142 17.5613 26.0355C17.4595 26.0592 17.3304 26.071 17.1742 26.071C16.9374 26.071 16.7054 26.0201 16.4782 25.9183C16.2533 25.8165 16.0662 25.6615 15.9171 25.4531C15.7703 25.2448 15.6969 24.982 15.6969 24.6648V19.2386Z" fill="#27AE60"/>
</svg>
