<svg width="25" height="25" viewBox="0 0 25 25" fill="none" xmlns="http://www.w3.org/2000/svg">
<path fill-rule="evenodd" clip-rule="evenodd" d="M21.875 1.5625H3.125C2.26206 1.5625 1.5625 2.26206 1.5625 3.125V21.875C1.5625 22.7379 2.26206 23.4375 3.125 23.4375H21.875C22.7379 23.4375 23.4375 22.7379 23.4375 21.875V3.125C23.4375 2.26206 22.7379 1.5625 21.875 1.5625ZM3.125 0C1.39911 0 0 1.39911 0 3.125V21.875C0 23.6009 1.39911 25 3.125 25H21.875C23.6009 25 25 23.6009 25 21.875V3.125C25 1.39911 23.6009 0 21.875 0H3.125Z" fill="#7A7A7A"/>
<path fill-rule="evenodd" clip-rule="evenodd" d="M9.375 17.9688C9.375 17.5373 9.72478 17.1875 10.1562 17.1875H14.8438C15.2752 17.1875 15.625 17.5373 15.625 17.9688C15.625 18.4002 15.2752 18.75 14.8438 18.75H10.1562C9.72478 18.75 9.375 18.4002 9.375 17.9688Z" fill="#7A7A7A"/>
<path fill-rule="evenodd" clip-rule="evenodd" d="M6.25 13.2812C6.25 12.8498 6.59978 12.5 7.03125 12.5H17.9688C18.4002 12.5 18.75 12.8498 18.75 13.2812C18.75 13.7127 18.4002 14.0625 17.9688 14.0625H7.03125C6.59978 14.0625 6.25 13.7127 6.25 13.2812Z" fill="#7A7A7A"/>
<path fill-rule="evenodd" clip-rule="evenodd" d="M3.125 8.59375C3.125 8.16228 3.47478 7.8125 3.90625 7.8125H21.0938C21.5252 7.8125 21.875 8.16228 21.875 8.59375C21.875 9.02522 21.5252 9.375 21.0938 9.375H3.90625C3.47478 9.375 3.125 9.02522 3.125 8.59375Z" fill="#7A7A7A"/>
</svg>
