<svg width="27" height="28" viewBox="0 0 27 28" fill="none" xmlns="http://www.w3.org/2000/svg">
<mask id="path-1-outside-1_248_5694" maskUnits="userSpaceOnUse" x="-0.5" y="0" width="28" height="28" fill="black">
<rect fill="white" x="-0.5" width="28" height="28"/>
<path fill-rule="evenodd" clip-rule="evenodd" d="M13.7194 1.05957L26.2862 8.42631C26.4187 8.50385 26.5002 8.64599 26.5001 8.79986V26.5667C26.5001 26.8063 26.3065 27 26.0668 27H23.9001C23.6605 27 23.4668 26.8063 23.4668 26.5667V14.8666H3.53334V26.5666C3.53334 26.8063 3.3392 27 3.10002 27H0.93332C0.694138 27 0.5 26.8063 0.5 26.5666V8.36649C0.5 8.20876 0.585821 8.06317 0.724049 7.98736L13.2908 1.05393C13.4247 0.979844 13.5872 0.982433 13.7194 1.05957ZM3.53334 13.9999H23.4668V13.1332H3.53334V13.9999ZM3.53334 12.2665H23.4668V11.3999H3.53334V12.2665ZM24.3335 26.1333H25.6335V9.04813L13.4936 1.93144L1.36669 8.62218V26.1333H2.6667V10.9665C2.6667 10.7273 2.86084 10.5332 3.10002 10.5332H23.9002C24.1398 10.5332 24.3335 10.7273 24.3335 10.9665V26.1333ZM22.6002 21.3665V16.1667C22.6002 15.9271 22.4065 15.7334 22.1669 15.7334H16.9669C16.7272 15.7334 16.5335 15.9271 16.5335 16.1667V20.9331H11.7669C11.5277 20.9331 11.3335 21.1268 11.3335 21.3665V26.5665C11.3335 26.8061 11.5277 26.9998 11.7669 26.9998H16.9669H16.9669H22.1669C22.4065 26.9998 22.6002 26.8061 22.6002 26.5665V21.3667V21.3665ZM20.8666 21.8001H21.7335V26.1332H17.4002V21.8001H18.2667V23.0997C18.2667 23.3393 18.4603 23.533 18.7 23.533H20.4333C20.673 23.533 20.8666 23.3393 20.8666 23.0997V21.8001ZM19.1334 21.8001H20V22.6664H19.1334V21.8001ZM21.7335 20.9331H17.4002V16.6001H18.2667V17.8999C18.2667 18.1396 18.4603 18.3333 18.7 18.3333H20.4333C20.673 18.3333 20.8666 18.1396 20.8666 17.8999V16.6001H21.7335V20.9331ZM20 16.6001H19.1334V17.4666H20V16.6001ZM12.2002 26.1332H16.5335V21.7998H15.6666V23.0997C15.6666 23.3393 15.473 23.533 15.2333 23.533H13.5C13.2608 23.533 13.0667 23.3393 13.0667 23.0997V21.7998H12.2002V26.1332ZM13.9334 21.7998H14.8V22.6664H13.9334V21.7998ZM11.3333 7.06675H15.6667C15.9063 7.06675 16.1 7.26088 16.1 7.50007V9.2334C16.1 9.47258 15.9063 9.66672 15.6667 9.66672H11.3333C11.0941 9.66672 10.9 9.47258 10.9 9.2334V7.50007C10.9 7.26088 11.0941 7.06675 11.3333 7.06675ZM11.7666 8.80013H15.2333V7.93344H11.7666V8.80013Z"/>
</mask>
<path fill-rule="evenodd" clip-rule="evenodd" d="M13.7194 1.05957L26.2862 8.42631C26.4187 8.50385 26.5002 8.64599 26.5001 8.79986V26.5667C26.5001 26.8063 26.3065 27 26.0668 27H23.9001C23.6605 27 23.4668 26.8063 23.4668 26.5667V14.8666H3.53334V26.5666C3.53334 26.8063 3.3392 27 3.10002 27H0.93332C0.694138 27 0.5 26.8063 0.5 26.5666V8.36649C0.5 8.20876 0.585821 8.06317 0.724049 7.98736L13.2908 1.05393C13.4247 0.979844 13.5872 0.982433 13.7194 1.05957ZM3.53334 13.9999H23.4668V13.1332H3.53334V13.9999ZM3.53334 12.2665H23.4668V11.3999H3.53334V12.2665ZM24.3335 26.1333H25.6335V9.04813L13.4936 1.93144L1.36669 8.62218V26.1333H2.6667V10.9665C2.6667 10.7273 2.86084 10.5332 3.10002 10.5332H23.9002C24.1398 10.5332 24.3335 10.7273 24.3335 10.9665V26.1333ZM22.6002 21.3665V16.1667C22.6002 15.9271 22.4065 15.7334 22.1669 15.7334H16.9669C16.7272 15.7334 16.5335 15.9271 16.5335 16.1667V20.9331H11.7669C11.5277 20.9331 11.3335 21.1268 11.3335 21.3665V26.5665C11.3335 26.8061 11.5277 26.9998 11.7669 26.9998H16.9669H16.9669H22.1669C22.4065 26.9998 22.6002 26.8061 22.6002 26.5665V21.3667V21.3665ZM20.8666 21.8001H21.7335V26.1332H17.4002V21.8001H18.2667V23.0997C18.2667 23.3393 18.4603 23.533 18.7 23.533H20.4333C20.673 23.533 20.8666 23.3393 20.8666 23.0997V21.8001ZM19.1334 21.8001H20V22.6664H19.1334V21.8001ZM21.7335 20.9331H17.4002V16.6001H18.2667V17.8999C18.2667 18.1396 18.4603 18.3333 18.7 18.3333H20.4333C20.673 18.3333 20.8666 18.1396 20.8666 17.8999V16.6001H21.7335V20.9331ZM20 16.6001H19.1334V17.4666H20V16.6001ZM12.2002 26.1332H16.5335V21.7998H15.6666V23.0997C15.6666 23.3393 15.473 23.533 15.2333 23.533H13.5C13.2608 23.533 13.0667 23.3393 13.0667 23.0997V21.7998H12.2002V26.1332ZM13.9334 21.7998H14.8V22.6664H13.9334V21.7998ZM11.3333 7.06675H15.6667C15.9063 7.06675 16.1 7.26088 16.1 7.50007V9.2334C16.1 9.47258 15.9063 9.66672 15.6667 9.66672H11.3333C11.0941 9.66672 10.9 9.47258 10.9 9.2334V7.50007C10.9 7.26088 11.0941 7.06675 11.3333 7.06675ZM11.7666 8.80013H15.2333V7.93344H11.7666V8.80013Z" fill="#0060B8"/>
<path d="M26.2862 8.42631L26.0333 8.85766L26.0337 8.85792L26.2862 8.42631ZM13.7194 1.05957L13.9722 0.628221L13.9714 0.627724L13.7194 1.05957ZM26.5001 8.79986L26.0001 8.79969V8.79986H26.5001ZM23.4668 14.8666H23.9668V14.3666H23.4668V14.8666ZM3.53334 14.8666V14.3666H3.03334V14.8666H3.53334ZM0.724049 7.98736L0.964501 8.42574L0.965588 8.42514L0.724049 7.98736ZM13.2908 1.05393L13.5324 1.49172L13.533 1.4914L13.2908 1.05393ZM23.4668 13.9999V14.4999H23.9668V13.9999H23.4668ZM3.53334 13.9999H3.03334V14.4999H3.53334V13.9999ZM23.4668 13.1332H23.9668V12.6332H23.4668V13.1332ZM3.53334 13.1332V12.6332H3.03334V13.1332H3.53334ZM23.4668 12.2665V12.7665H23.9668V12.2665H23.4668ZM3.53334 12.2665H3.03334V12.7665H3.53334V12.2665ZM23.4668 11.3999H23.9668V10.8999H23.4668V11.3999ZM3.53334 11.3999V10.8999H3.03334V11.3999H3.53334ZM25.6335 26.1333V26.6333H26.1335V26.1333H25.6335ZM24.3335 26.1333H23.8335V26.6333H24.3335V26.1333ZM25.6335 9.04813H26.1335V8.76166L25.8864 8.61679L25.6335 9.04813ZM13.4936 1.93144L13.7465 1.50009L13.5011 1.35625L13.2521 1.49365L13.4936 1.93144ZM1.36669 8.62218L1.12515 8.18439L0.86669 8.32699V8.62218H1.36669ZM1.36669 26.1333H0.86669V26.6333H1.36669V26.1333ZM2.6667 26.1333V26.6333H3.1667V26.1333H2.6667ZM16.5335 20.9331V21.4331H17.0335V20.9331H16.5335ZM21.7335 21.8001H22.2335V21.3001H21.7335V21.8001ZM20.8666 21.8001V21.3001H20.3666V21.8001H20.8666ZM21.7335 26.1332V26.6332H22.2335V26.1332H21.7335ZM17.4002 26.1332H16.9002V26.6332H17.4002V26.1332ZM17.4002 21.8001V21.3001H16.9002V21.8001H17.4002ZM18.2667 21.8001H18.7667V21.3001H18.2667V21.8001ZM20 21.8001H20.5V21.3001H20V21.8001ZM19.1334 21.8001V21.3001H18.6334V21.8001H19.1334ZM20 22.6664V23.1664H20.5V22.6664H20ZM19.1334 22.6664H18.6334V23.1664H19.1334V22.6664ZM17.4002 20.9331H16.9002V21.4331H17.4002V20.9331ZM21.7335 20.9331V21.4331H22.2335V20.9331H21.7335ZM17.4002 16.6001V16.1001H16.9002V16.6001H17.4002ZM18.2667 16.6001H18.7667V16.1001H18.2667V16.6001ZM20.8666 16.6001V16.1001H20.3666V16.6001H20.8666ZM21.7335 16.6001H22.2335V16.1001H21.7335V16.6001ZM19.1334 16.6001V16.1001H18.6334V16.6001H19.1334ZM20 16.6001H20.5V16.1001H20V16.6001ZM19.1334 17.4666H18.6334V17.9666H19.1334V17.4666ZM20 17.4666V17.9666H20.5V17.4666H20ZM16.5335 26.1332V26.6332H17.0335V26.1332H16.5335ZM12.2002 26.1332H11.7002V26.6332H12.2002V26.1332ZM16.5335 21.7998H17.0335V21.2998H16.5335V21.7998ZM15.6666 21.7998V21.2998H15.1666V21.7998H15.6666ZM13.0667 21.7998H13.5667V21.2998H13.0667V21.7998ZM12.2002 21.7998V21.2998H11.7002V21.7998H12.2002ZM14.8 21.7998H15.3V21.2998H14.8V21.7998ZM13.9334 21.7998V21.2998H13.4334V21.7998H13.9334ZM14.8 22.6664V23.1664H15.3V22.6664H14.8ZM13.9334 22.6664H13.4334V23.1664H13.9334V22.6664ZM15.2333 8.80013V9.30013H15.7333V8.80013H15.2333ZM11.7666 8.80013H11.2666V9.30013H11.7666V8.80013ZM15.2333 7.93344H15.7333V7.43344H15.2333V7.93344ZM11.7666 7.93344V7.43344H11.2666V7.93344H11.7666ZM26.539 7.99496L13.9722 0.628222L13.4665 1.49092L26.0333 8.85766L26.539 7.99496ZM27.0001 8.80003C27.0003 8.46875 26.8248 8.1621 26.5386 7.9947L26.0337 8.85792C26.0127 8.84561 26.0001 8.82324 26.0001 8.79969L27.0001 8.80003ZM27.0001 26.5667V8.79986H26.0001V26.5667H27.0001ZM26.0668 27.5C26.5826 27.5 27.0001 27.0825 27.0001 26.5667H26.0001C26.0001 26.5302 26.0303 26.5 26.0668 26.5V27.5ZM23.9001 27.5H26.0668V26.5H23.9001V27.5ZM22.9668 26.5667C22.9668 27.0825 23.3844 27.5 23.9001 27.5V26.5C23.9366 26.5 23.9668 26.5302 23.9668 26.5667H22.9668ZM22.9668 14.8666V26.5667H23.9668V14.8666H22.9668ZM3.53334 15.3666H23.4668V14.3666H3.53334V15.3666ZM4.03334 26.5666V14.8666H3.03334V26.5666H4.03334ZM3.10002 27.5C3.615 27.5 4.03334 27.0828 4.03334 26.5666H3.03334C3.03334 26.5298 3.0634 26.5 3.10002 26.5V27.5ZM0.93332 27.5H3.10002V26.5H0.93332V27.5ZM0 26.5666C0 27.0828 0.418338 27.5 0.93332 27.5V26.5C0.969938 26.5 1 26.5298 1 26.5666H0ZM0 8.36649V26.5666H1V8.36649H0ZM0.483597 7.54897C0.184549 7.71299 0 8.02708 0 8.36649H1C1 8.39044 0.987093 8.41335 0.9645 8.42574L0.483597 7.54897ZM13.0493 0.616145L0.482509 7.54957L0.965588 8.42514L13.5324 1.49172L13.0493 0.616145ZM13.9714 0.627724C13.6887 0.462751 13.3385 0.456091 13.0487 0.616472L13.533 1.4914C13.5109 1.5036 13.4857 1.50212 13.4674 1.49142L13.9714 0.627724ZM23.4668 13.4999H3.53334V14.4999H23.4668V13.4999ZM22.9668 13.1332V13.9999H23.9668V13.1332H22.9668ZM3.53334 13.6332H23.4668V12.6332H3.53334V13.6332ZM4.03334 13.9999V13.1332H3.03334V13.9999H4.03334ZM23.4668 11.7665H3.53334V12.7665H23.4668V11.7665ZM22.9668 11.3999V12.2665H23.9668V11.3999H22.9668ZM3.53334 11.8999H23.4668V10.8999H3.53334V11.8999ZM4.03334 12.2665V11.3999H3.03334V12.2665H4.03334ZM25.6335 25.6333H24.3335V26.6333H25.6335V25.6333ZM25.1335 9.04813V26.1333H26.1335V9.04813H25.1335ZM13.2407 2.36279L25.3806 9.47948L25.8864 8.61679L13.7465 1.50009L13.2407 2.36279ZM1.60823 9.05996L13.7351 2.36923L13.2521 1.49365L1.12515 8.18439L1.60823 9.05996ZM1.86669 26.1333V8.62218H0.86669V26.1333H1.86669ZM2.6667 25.6333H1.36669V26.6333H2.6667V25.6333ZM2.1667 10.9665V26.1333H3.1667V10.9665H2.1667ZM3.10002 10.0332C2.5847 10.0332 2.1667 10.4512 2.1667 10.9665H3.1667C3.1667 11.0035 3.13698 11.0332 3.10002 11.0332V10.0332ZM23.9002 10.0332H3.10002V11.0332H23.9002V10.0332ZM24.8335 10.9665C24.8335 10.4515 24.4163 10.0332 23.9002 10.0332V11.0332C23.8633 11.0332 23.8335 11.0031 23.8335 10.9665H24.8335ZM24.8335 26.1333V10.9665H23.8335V26.1333H24.8335ZM22.1002 16.1667V21.3665H23.1002V16.1667H22.1002ZM22.1669 16.2334C22.1304 16.2334 22.1002 16.2032 22.1002 16.1667H23.1002C23.1002 15.6509 22.6827 15.2334 22.1669 15.2334V16.2334ZM16.9669 16.2334H22.1669V15.2334H16.9669V16.2334ZM17.0335 16.1667C17.0335 16.2032 17.0034 16.2334 16.9669 16.2334V15.2334C16.4511 15.2334 16.0335 15.6509 16.0335 16.1667H17.0335ZM17.0335 20.9331V16.1667H16.0335V20.9331H17.0335ZM11.7669 21.4331H16.5335V20.4331H11.7669V21.4331ZM11.8335 21.3665C11.8335 21.4033 11.8035 21.4331 11.7669 21.4331V20.4331C11.2519 20.4331 10.8335 20.8503 10.8335 21.3665H11.8335ZM11.8335 26.5665V21.3665H10.8335V26.5665H11.8335ZM11.7669 26.4998C11.8035 26.4998 11.8335 26.5297 11.8335 26.5665H10.8335C10.8335 27.0826 11.2519 27.4998 11.7669 27.4998V26.4998ZM16.9669 26.4998H11.7669V27.4998H16.9669V26.4998ZM16.9669 26.4998H16.9669V27.4998H16.9669V26.4998ZM22.1669 26.4998H16.9669V27.4998H22.1669V26.4998ZM22.1002 26.5665C22.1002 26.53 22.1304 26.4998 22.1669 26.4998V27.4998C22.6827 27.4998 23.1002 27.0823 23.1002 26.5665H22.1002ZM22.1002 21.3667V26.5665H23.1002V21.3667H22.1002ZM22.1002 21.3665V21.3667H23.1002V21.3665H22.1002ZM21.7335 21.3001H20.8666V22.3001H21.7335V21.3001ZM22.2335 26.1332V21.8001H21.2335V26.1332H22.2335ZM17.4002 26.6332H21.7335V25.6332H17.4002V26.6332ZM16.9002 21.8001V26.1332H17.9002V21.8001H16.9002ZM18.2667 21.3001H17.4002V22.3001H18.2667V21.3001ZM18.7667 23.0997V21.8001H17.7667V23.0997H18.7667ZM18.7 23.033C18.7365 23.033 18.7667 23.0632 18.7667 23.0997H17.7667C17.7667 23.6155 18.1842 24.033 18.7 24.033V23.033ZM20.4333 23.033H18.7V24.033H20.4333V23.033ZM20.3666 23.0997C20.3666 23.0632 20.3968 23.033 20.4333 23.033V24.033C20.9491 24.033 21.3666 23.6155 21.3666 23.0997H20.3666ZM20.3666 21.8001V23.0997H21.3666V21.8001H20.3666ZM20 21.3001H19.1334V22.3001H20V21.3001ZM20.5 22.6664V21.8001H19.5V22.6664H20.5ZM19.1334 23.1664H20V22.1664H19.1334V23.1664ZM18.6334 21.8001V22.6664H19.6334V21.8001H18.6334ZM17.4002 21.4331H21.7335V20.4331H17.4002V21.4331ZM16.9002 16.6001V20.9331H17.9002V16.6001H16.9002ZM18.2667 16.1001H17.4002V17.1001H18.2667V16.1001ZM18.7667 17.8999V16.6001H17.7667V17.8999H18.7667ZM18.7 17.8333C18.7365 17.8333 18.7667 17.8634 18.7667 17.8999H17.7667C17.7667 18.4157 18.1842 18.8333 18.7 18.8333V17.8333ZM20.4333 17.8333H18.7V18.8333H20.4333V17.8333ZM20.3666 17.8999C20.3666 17.8634 20.3968 17.8333 20.4333 17.8333V18.8333C20.9491 18.8333 21.3666 18.4157 21.3666 17.8999H20.3666ZM20.3666 16.6001V17.8999H21.3666V16.6001H20.3666ZM21.7335 16.1001H20.8666V17.1001H21.7335V16.1001ZM22.2335 20.9331V16.6001H21.2335V20.9331H22.2335ZM19.1334 17.1001H20V16.1001H19.1334V17.1001ZM19.6334 17.4666V16.6001H18.6334V17.4666H19.6334ZM20 16.9666H19.1334V17.9666H20V16.9666ZM19.5 16.6001V17.4666H20.5V16.6001H19.5ZM16.5335 25.6332H12.2002V26.6332H16.5335V25.6332ZM16.0335 21.7998V26.1332H17.0335V21.7998H16.0335ZM15.6666 22.2998H16.5335V21.2998H15.6666V22.2998ZM16.1666 23.0997V21.7998H15.1666V23.0997H16.1666ZM15.2333 24.033C15.7491 24.033 16.1666 23.6155 16.1666 23.0997H15.1666C15.1666 23.0632 15.1968 23.033 15.2333 23.033V24.033ZM13.5 24.033H15.2333V23.033H13.5V24.033ZM12.5667 23.0997C12.5667 23.6158 12.985 24.033 13.5 24.033V23.033C13.5366 23.033 13.5667 23.0628 13.5667 23.0997H12.5667ZM12.5667 21.7998V23.0997H13.5667V21.7998H12.5667ZM12.2002 22.2998H13.0667V21.2998H12.2002V22.2998ZM12.7002 26.1332V21.7998H11.7002V26.1332H12.7002ZM14.8 21.2998H13.9334V22.2998H14.8V21.2998ZM15.3 22.6664V21.7998H14.3V22.6664H15.3ZM13.9334 23.1664H14.8V22.1664H13.9334V23.1664ZM13.4334 21.7998V22.6664H14.4334V21.7998H13.4334ZM15.6667 6.56675H11.3333V7.56675H15.6667V6.56675ZM16.6 7.50007C16.6 6.98508 16.1828 6.56675 15.6667 6.56675V7.56675C15.6298 7.56675 15.6 7.53668 15.6 7.50007H16.6ZM16.6 9.2334V7.50007H15.6V9.2334H16.6ZM15.6667 10.1667C16.1828 10.1667 16.6 9.74838 16.6 9.2334H15.6C15.6 9.19678 15.6298 9.16672 15.6667 9.16672V10.1667ZM11.3333 10.1667H15.6667V9.16672H11.3333V10.1667ZM10.4 9.2334C10.4 9.74872 10.818 10.1667 11.3333 10.1667V9.16672C11.3703 9.16672 11.4 9.19643 11.4 9.2334H10.4ZM10.4 7.50007V9.2334H11.4V7.50007H10.4ZM11.3333 6.56675C10.818 6.56675 10.4 6.98474 10.4 7.50007H11.4C11.4 7.53703 11.3703 7.56675 11.3333 7.56675V6.56675ZM15.2333 8.30013H11.7666V9.30013H15.2333V8.30013ZM14.7333 7.93344V8.80013H15.7333V7.93344H14.7333ZM11.7666 8.43344H15.2333V7.43344H11.7666V8.43344ZM12.2666 8.80013V7.93344H11.2666V8.80013H12.2666Z" fill="#0060B8" mask="url(#path-1-outside-1_248_5694)"/>
</svg>
