<svg width="27" height="28" viewBox="0 0 27 28" fill="none" xmlns="http://www.w3.org/2000/svg">
<path fill-rule="evenodd" clip-rule="evenodd" d="M5.5 3.50006C5.5 2.67163 6.17157 2.00006 7 2.00006H16C16.8284 2.00006 17.5 2.67163 17.5 3.50006V5.00006H18.5194C18.9751 5.00006 19.406 5.2072 19.6907 5.56302L21.1713 7.4138C21.3841 7.67977 21.5 8.01023 21.5 8.35084V10.5001C21.5 11.3285 20.8284 12.0001 20 12.0001H19.5C19.5 13.1046 18.6046 14.0001 17.5 14.0001C16.3954 14.0001 15.5 13.1046 15.5 12.0001H10.5C10.5 13.1046 9.60457 14.0001 8.5 14.0001C7.39543 14.0001 6.5 13.1046 6.5 12.0001C6.5 11.9717 6.50059 11.9434 6.50176 11.9153C5.91824 11.7099 5.5 11.1538 5.5 10.5001V3.50006ZM6.79396 10.9558C7.14562 10.3825 7.77815 10.0001 8.5 10.0001C9.24028 10.0001 9.88663 10.4023 10.2324 11.0001H15.7676C15.9432 10.6964 16.1964 10.4433 16.5 10.2676V3.50006C16.5 3.22392 16.2761 3.00006 16 3.00006H7C6.72386 3.00006 6.5 3.22392 6.5 3.50006V10.5001C6.5 10.7027 6.6206 10.8773 6.79396 10.9558ZM17.5 10.0001C18.2403 10.0001 18.8866 10.4023 19.2324 11.0001H20C20.2761 11.0001 20.5 10.7762 20.5 10.5001V8.35084C20.5 8.23731 20.4614 8.12715 20.3904 8.03849L18.9098 6.18771C18.8149 6.06911 18.6713 6.00006 18.5194 6.00006H17.5V10.0001ZM8.5 11.0001C7.94772 11.0001 7.5 11.4478 7.5 12.0001C7.5 12.5523 7.94772 13.0001 8.5 13.0001C9.05228 13.0001 9.5 12.5523 9.5 12.0001C9.5 11.4478 9.05228 11.0001 8.5 11.0001ZM17.5 11.0001C16.9477 11.0001 16.5 11.4478 16.5 12.0001C16.5 12.5523 16.9477 13.0001 17.5 13.0001C18.0523 13.0001 18.5 12.5523 18.5 12.0001C18.5 11.4478 18.0523 11.0001 17.5 11.0001Z" fill="#0060B8"/>
<path d="M0.482955 19.5086V18.7273H5.9375V19.5086H3.65057V26.0001H2.76989V19.5086H0.482955ZM6.61665 26.0001V20.5455H7.42631V21.3694H7.48313C7.58256 21.0995 7.76249 20.8805 8.0229 20.7124C8.28332 20.5443 8.57688 20.4603 8.90359 20.4603C8.96514 20.4603 9.04208 20.4615 9.13441 20.4638C9.22674 20.4662 9.29658 20.4698 9.34393 20.4745V21.3268C9.31552 21.3197 9.25041 21.309 9.14862 21.2948C9.04918 21.2782 8.94383 21.2699 8.83256 21.2699C8.56741 21.2699 8.33067 21.3256 8.12234 21.4369C7.91637 21.5458 7.75302 21.6973 7.63228 21.8914C7.51391 22.0832 7.45472 22.3021 7.45472 22.5484V26.0001H6.61665ZM11.9425 26.1279C11.5968 26.1279 11.2831 26.0628 11.0014 25.9326C10.7197 25.8 10.496 25.6094 10.3303 25.3609C10.1645 25.1099 10.0817 24.8069 10.0817 24.4518C10.0817 24.1393 10.1432 23.886 10.2663 23.6918C10.3894 23.4953 10.554 23.3414 10.7599 23.2302C10.9659 23.1189 11.1932 23.036 11.4418 22.9816C11.6927 22.9248 11.9448 22.8798 12.1982 22.8467C12.5296 22.804 12.7983 22.7721 13.0043 22.7508C13.2126 22.7271 13.3641 22.688 13.4588 22.6336C13.5559 22.5791 13.6044 22.4844 13.6044 22.3495V22.3211C13.6044 21.9707 13.5085 21.6985 13.3168 21.5043C13.1274 21.3102 12.8397 21.2131 12.4538 21.2131C12.0537 21.2131 11.7401 21.3007 11.5128 21.4759C11.2855 21.6511 11.1257 21.8381 11.0334 22.037L10.2379 21.7529C10.38 21.4215 10.5694 21.1634 10.8061 20.9788C11.0452 20.7917 11.3056 20.6615 11.5874 20.5881C11.8714 20.5124 12.1508 20.4745 12.4254 20.4745C12.6006 20.4745 12.8018 20.4958 13.0291 20.5384C13.2588 20.5787 13.4801 20.6627 13.6932 20.7905C13.9086 20.9184 14.0874 21.1113 14.2294 21.3694C14.3714 21.6274 14.4425 21.9731 14.4425 22.4063V26.0001H13.6044V25.2614H13.5618C13.505 25.3798 13.4103 25.5065 13.2777 25.6414C13.1451 25.7763 12.9688 25.8912 12.7486 25.9859C12.5284 26.0806 12.2597 26.1279 11.9425 26.1279ZM12.0703 25.3751C12.4018 25.3751 12.6811 25.31 12.9084 25.1797C13.138 25.0495 13.3108 24.8815 13.4268 24.6755C13.5452 24.4695 13.6044 24.2529 13.6044 24.0256V23.2586C13.5689 23.3012 13.4908 23.3403 13.37 23.3758C13.2517 23.4089 13.1143 23.4385 12.9581 23.4645C12.8042 23.4882 12.6539 23.5095 12.5071 23.5285C12.3627 23.545 12.2455 23.5592 12.1555 23.5711C11.9377 23.5995 11.7341 23.6457 11.5447 23.7096C11.3577 23.7711 11.2062 23.8646 11.0902 23.9901C10.9766 24.1132 10.9197 24.2813 10.9197 24.4944C10.9197 24.7856 11.0275 25.0057 11.2429 25.1549C11.4607 25.3017 11.7365 25.3751 12.0703 25.3751ZM18.188 26.1137C17.6767 26.1137 17.2363 25.993 16.867 25.7515C16.4977 25.51 16.2136 25.1774 16.0147 24.7536C15.8159 24.3298 15.7164 23.8457 15.7164 23.3012C15.7164 22.7472 15.8182 22.2583 16.0218 21.8346C16.2278 21.4084 16.5143 21.0758 16.8812 20.8367C17.2505 20.5952 17.6814 20.4745 18.1738 20.4745C18.5574 20.4745 18.903 20.5455 19.2108 20.6876C19.5185 20.8296 19.7707 21.0285 19.9672 21.2842C20.1636 21.5398 20.2856 21.8381 20.3329 22.179H19.4949C19.4309 21.9305 19.2889 21.7103 19.0687 21.5185C18.8509 21.3244 18.5574 21.2273 18.188 21.2273C17.8613 21.2273 17.5749 21.3126 17.3287 21.483C17.0848 21.6511 16.8942 21.889 16.7569 22.1968C16.622 22.5022 16.5545 22.8609 16.5545 23.2728C16.5545 23.6942 16.6208 24.0611 16.7534 24.3736C16.8883 24.6861 17.0777 24.9288 17.3216 25.1016C17.5678 25.2744 17.8566 25.3609 18.188 25.3609C18.4058 25.3609 18.6035 25.323 18.7811 25.2472C18.9586 25.1715 19.109 25.0626 19.2321 24.9205C19.3552 24.7785 19.4428 24.608 19.4949 24.4092H20.3329C20.2856 24.7311 20.1684 25.0211 19.9814 25.2792C19.7967 25.5349 19.5517 25.7385 19.2463 25.89C18.9432 26.0391 18.5905 26.1137 18.188 26.1137ZM22.3393 24.0114L22.3251 22.9745H22.4956L24.8819 20.5455H25.9189L23.3762 23.1165H23.3052L22.3393 24.0114ZM21.5581 26.0001V18.7273H22.3961V26.0001H21.5581ZM25.024 26.0001L22.8933 23.3012L23.4899 22.7188L26.0893 26.0001H25.024Z" fill="#0060B8"/>
</svg>
