<svg width="27" height="28" viewBox="0 0 27 28" fill="none" xmlns="http://www.w3.org/2000/svg">
<path fill-rule="evenodd" clip-rule="evenodd" d="M5.5 3.5C5.5 2.67157 6.17157 2 7 2H16C16.8284 2 17.5 2.67157 17.5 3.5V5H18.5194C18.9751 5 19.406 5.20713 19.6907 5.56296L21.1713 7.41374C21.3841 7.67971 21.5 8.01017 21.5 8.35078V10.5C21.5 11.3284 20.8284 12 20 12H19.5C19.5 13.1046 18.6046 14 17.5 14C16.3954 14 15.5 13.1046 15.5 12H10.5C10.5 13.1046 9.60457 14 8.5 14C7.39543 14 6.5 13.1046 6.5 12C6.5 11.9716 6.50059 11.9434 6.50176 11.9153C5.91824 11.7098 5.5 11.1538 5.5 10.5V3.5ZM6.79396 10.9557C7.14562 10.3824 7.77815 10 8.5 10C9.24028 10 9.88663 10.4022 10.2324 11H15.7676C15.9432 10.6964 16.1964 10.4432 16.5 10.2676V3.5C16.5 3.22386 16.2761 3 16 3H7C6.72386 3 6.5 3.22386 6.5 3.5V10.5C6.5 10.7027 6.6206 10.8772 6.79396 10.9557ZM17.5 10C18.2403 10 18.8866 10.4022 19.2324 11H20C20.2761 11 20.5 10.7761 20.5 10.5V8.35078C20.5 8.23725 20.4614 8.12709 20.3904 8.03843L18.9098 6.18765C18.8149 6.06905 18.6713 6 18.5194 6H17.5V10ZM8.5 11C7.94772 11 7.5 11.4477 7.5 12C7.5 12.5523 7.94772 13 8.5 13C9.05228 13 9.5 12.5523 9.5 12C9.5 11.4477 9.05228 11 8.5 11ZM17.5 11C16.9477 11 16.5 11.4477 16.5 12C16.5 12.5523 16.9477 13 17.5 13C18.0523 13 18.5 12.5523 18.5 12C18.5 11.4477 18.0523 11 17.5 11Z" fill="#BDBDBD"/>
<path d="M0.482955 19.5085V18.7273H5.9375V19.5085H3.65057V26H2.76989V19.5085H0.482955ZM6.61665 26V20.5455H7.42631V21.3693H7.48313C7.58256 21.0994 7.76249 20.8804 8.0229 20.7124C8.28332 20.5443 8.57688 20.4602 8.90359 20.4602C8.96514 20.4602 9.04208 20.4614 9.13441 20.4638C9.22674 20.4661 9.29658 20.4697 9.34393 20.4744V21.3267C9.31552 21.3196 9.25041 21.3089 9.14862 21.2947C9.04918 21.2782 8.94383 21.2699 8.83256 21.2699C8.56741 21.2699 8.33067 21.3255 8.12234 21.4368C7.91637 21.5457 7.75302 21.6972 7.63228 21.8913C7.51391 22.0831 7.45472 22.3021 7.45472 22.5483V26H6.61665ZM11.9425 26.1278C11.5968 26.1278 11.2831 26.0627 11.0014 25.9325C10.7197 25.8 10.496 25.6094 10.3303 25.3608C10.1645 25.1098 10.0817 24.8068 10.0817 24.4517C10.0817 24.1392 10.1432 23.8859 10.2663 23.6918C10.3894 23.4953 10.554 23.3414 10.7599 23.2301C10.9659 23.1188 11.1932 23.036 11.4418 22.9815C11.6927 22.9247 11.9448 22.8797 12.1982 22.8466C12.5296 22.804 12.7983 22.772 13.0043 22.7507C13.2126 22.727 13.3641 22.688 13.4588 22.6335C13.5559 22.5791 13.6044 22.4844 13.6044 22.3494V22.321C13.6044 21.9706 13.5085 21.6984 13.3168 21.5043C13.1274 21.3101 12.8397 21.2131 12.4538 21.2131C12.0537 21.2131 11.7401 21.3007 11.5128 21.4759C11.2855 21.651 11.1257 21.8381 11.0334 22.0369L10.2379 21.7528C10.38 21.4214 10.5694 21.1634 10.8061 20.9787C11.0452 20.7917 11.3056 20.6615 11.5874 20.5881C11.8714 20.5123 12.1508 20.4744 12.4254 20.4744C12.6006 20.4744 12.8018 20.4957 13.0291 20.5384C13.2588 20.5786 13.4801 20.6626 13.6932 20.7905C13.9086 20.9183 14.0874 21.1113 14.2294 21.3693C14.3714 21.6274 14.4425 21.973 14.4425 22.4062V26H13.6044V25.2614H13.5618C13.505 25.3797 13.4103 25.5064 13.2777 25.6413C13.1451 25.7763 12.9688 25.8911 12.7486 25.9858C12.5284 26.0805 12.2597 26.1278 11.9425 26.1278ZM12.0703 25.375C12.4018 25.375 12.6811 25.3099 12.9084 25.1797C13.138 25.0495 13.3108 24.8814 13.4268 24.6754C13.5452 24.4695 13.6044 24.2528 13.6044 24.0256V23.2585C13.5689 23.3011 13.4908 23.3402 13.37 23.3757C13.2517 23.4089 13.1143 23.4384 12.9581 23.4645C12.8042 23.4882 12.6539 23.5095 12.5071 23.5284C12.3627 23.545 12.2455 23.5592 12.1555 23.571C11.9377 23.5994 11.7341 23.6456 11.5447 23.7095C11.3577 23.7711 11.2062 23.8646 11.0902 23.9901C10.9766 24.1132 10.9197 24.2812 10.9197 24.4943C10.9197 24.7855 11.0275 25.0057 11.2429 25.1548C11.4607 25.3016 11.7365 25.375 12.0703 25.375ZM18.188 26.1136C17.6767 26.1136 17.2363 25.9929 16.867 25.7514C16.4977 25.5099 16.2136 25.1773 16.0147 24.7536C15.8159 24.3298 15.7164 23.8456 15.7164 23.3011C15.7164 22.7472 15.8182 22.2583 16.0218 21.8345C16.2278 21.4084 16.5143 21.0758 16.8812 20.8366C17.2505 20.5952 17.6814 20.4744 18.1738 20.4744C18.5574 20.4744 18.903 20.5455 19.2108 20.6875C19.5185 20.8295 19.7707 21.0284 19.9672 21.2841C20.1636 21.5398 20.2856 21.8381 20.3329 22.179H19.4949C19.4309 21.9304 19.2889 21.7102 19.0687 21.5185C18.8509 21.3243 18.5574 21.2273 18.188 21.2273C17.8613 21.2273 17.5749 21.3125 17.3287 21.483C17.0848 21.651 16.8942 21.889 16.7569 22.1967C16.622 22.5021 16.5545 22.8608 16.5545 23.2727C16.5545 23.6941 16.6208 24.0611 16.7534 24.3736C16.8883 24.6861 17.0777 24.9287 17.3216 25.1016C17.5678 25.2744 17.8566 25.3608 18.188 25.3608C18.4058 25.3608 18.6035 25.3229 18.7811 25.2472C18.9586 25.1714 19.109 25.0625 19.2321 24.9205C19.3552 24.7784 19.4428 24.608 19.4949 24.4091H20.3329C20.2856 24.7311 20.1684 25.0211 19.9814 25.2791C19.7967 25.5348 19.5517 25.7384 19.2463 25.8899C18.9432 26.0391 18.5905 26.1136 18.188 26.1136ZM22.3393 24.0114L22.3251 22.9744H22.4956L24.8819 20.5455H25.9189L23.3762 23.1165H23.3052L22.3393 24.0114ZM21.5581 26V18.7273H22.3961V26H21.5581ZM25.024 26L22.8933 23.3011L23.4899 22.7188L26.0893 26H25.024Z" fill="#BDBDBD"/>
</svg>
